<?xml version="1.0" standalone="no"?>
<!DOCTYPE svg PUBLIC "-//W3C//DTD SVG 20010904//EN"
 "http://www.w3.org/TR/2001/REC-SVG-20010904/DTD/svg10.dtd">
<svg version="1.0" xmlns="http://www.w3.org/2000/svg"
 width="512.000000pt" height="512.000000pt" viewBox="0 0 512.000000 512.000000"
 preserveAspectRatio="xMidYMid meet">

<g transform="translate(0.000000,512.000000) scale(0.100000,-0.100000)"
fill="#000000" stroke="none">
<path d="M2477 4729 c-101 -24 -205 -107 -251 -202 -92 -190 -9 -426 182 -515
50 -23 70 -27 157 -27 93 0 105 2 167 33 226 111 284 406 118 596 -86 98 -242
146 -373 115z"/>
<path d="M2477 2929 c-101 -24 -205 -107 -251 -202 -92 -190 -9 -426 182 -515
50 -23 70 -27 157 -27 93 0 105 2 167 33 226 111 284 406 118 596 -86 98 -242
146 -373 115z"/>
<path d="M2441 1120 c-264 -98 -340 -429 -143 -627 182 -181 490 -133 606 95
96 190 20 420 -171 514 -86 42 -207 50 -292 18z"/>
</g>
</svg>
